<?xml version="1.0" encoding="UTF-8"?>
<svg id="Layer_1" data-name="Layer 1" xmlns="http://www.w3.org/2000/svg" viewBox="0 0 744.29 724.58">
  <defs>
    <style>
      .cls-1 {
        fill: #ff7846;
      }

      .cls-2 {
        fill: #5474fc;
      }

      .cls-3 {
        fill: #ff943c;
      }
    </style>
  </defs>
  <circle class="cls-2" cx="639.63" cy="104.66" r="104.64"/>
  <circle class="cls-2" cx="99.24" cy="152.25" r="99.23"/>
  <circle class="cls-2" cx="329.38" cy="597.69" r="126.87"/>
  <path class="cls-2" d="M283.34,536.53l-44.58-12.53c27.32-97.26,90.1-179.93,176.8-232.8l24.11,39.53c-76.67,46.76-132.19,119.84-156.33,205.8Z"/>
  <path class="cls-2" d="M538.01,320.91c-26.63,4.6-53.38,3.84-79.51-2.25l10.51-45.1c20.06,4.68,40.63,5.25,61.12,1.72,63.18-10.91,113.5-60.57,125.22-123.56l45.53,8.47c-15.25,81.95-80.7,146.54-162.87,160.73Z"/>
  <path class="cls-2" d="M408.04,298.06c-63.63-106.92-188.78-164.53-311.42-143.35-12.8,2.21-25.53,5.25-37.85,9.04l-12.19-39.63c14-4.31,28.46-7.76,42.99-10.27,139.45-24.08,281.75,41.43,354.12,163.01l-35.64,21.21Z"/>
  <g>
    <path class="cls-3" d="M323.22,315.4c.76,55.13,46.07,99.21,101.2,98.45,55.13-.76,99.21-46.07,98.45-101.2-.76-55.13-68.41-156.72-102-156.26-22.54,.31-98.41,103.88-97.65,159.01Z"/>
    <path class="cls-1" d="M323.41,315.4c.76,55.13,46.07,99.21,101.2,98.45l-28.33-80.05c-7.18-20.29-8.28-42.24-3.17-63.14l27.95-114.27c-22.54,.31-98.41,103.88-97.65,159.01Z"/>
  </g>
</svg>