<?xml version="1.0" encoding="UTF-8"?>
<svg id="Layer_1" data-name="Layer 1" xmlns="http://www.w3.org/2000/svg" viewBox="0 0 776.07 781.04">
  <defs>
    <style>
      .cls-1 {
        fill: #ff7846;
      }

      .cls-2 {
        fill: #5474fc;
      }

      .cls-3 {
        fill: #ff943c;
      }
    </style>
  </defs>
  <circle class="cls-2" cx="663.18" cy="112.9" r="112.88"/>
  <circle class="cls-2" cx="107.05" cy="118.75" r="107.04"/>
  <circle class="cls-2" cx="317.39" cy="650.95" r="130.07"/>
  <path class="cls-2" d="M278.85,578.75l-48.09-13.51c29.47-104.91,97.19-194.09,190.71-251.12l26.01,42.64c-82.7,50.44-142.59,129.27-168.63,221.99Z"/>
  <path class="cls-2" d="M553.56,346.17c-28.73,4.96-57.58,4.14-85.76-2.43l11.34-48.65c21.64,5.05,43.82,5.67,65.93,1.85,68.15-11.77,122.43-65.33,135.07-133.29l49.12,9.13c-16.45,88.4-87.05,158.07-175.69,173.38Z"/>
  <path class="cls-2" d="M378.78,362.59c-41.4-127.66-159.29-218.15-293.36-225.17-13.99-.73-28.11-.57-41.98,.47l-3.36-44.6c15.75-1.19,31.79-1.37,47.68-.54,152.44,7.97,286.49,110.87,333.57,256.04l-42.55,13.8Z"/>
  <path class="cls-3" d="M323.56,340.22c.82,59.47,49.7,107.01,109.17,106.19,59.47-.82,107.01-49.7,106.19-109.17-.82-59.47-73.79-169.05-110.03-168.55-24.32,.34-106.15,112.05-105.33,171.52Z"/>
  <path class="cls-1" d="M322.08,340.22c.82,59.47,49.7,107.02,109.17,106.19l-30.56-86.35c-7.75-21.89-8.93-45.56-3.42-68.11l30.15-123.26c-24.32,.34-106.15,112.05-105.33,171.52Z"/>
</svg>