<svg id="svg" version="1.1" xmlns="http://www.w3.org/2000/svg" xmlns:xlink="http://www.w3.org/1999/xlink" width="400" height="400" viewBox="0, 0, 400,400"><g id="svgg"><path id="path0" d="M113.431 165.714 C 92.047 170.590,95.436 204.035,117.309 203.995 C 129.049 203.974,136.740 194.876,135.663 182.284 C 134.699 171.017,124.268 163.243,113.431 165.714 M140.800 184.667 L 140.800 203.733 144.264 203.733 L 147.728 203.733 147.797 191.667 L 147.867 179.600 152.533 187.130 L 157.200 194.660 159.334 194.663 L 161.468 194.667 166.134 187.133 L 170.800 179.600 170.869 191.667 L 170.939 203.733 174.536 203.733 L 178.133 203.733 178.133 184.667 L 178.133 165.600 174.733 165.611 L 171.333 165.621 165.371 175.208 C 162.092 180.481,159.332 184.748,159.238 184.690 C 159.144 184.632,156.427 180.314,153.200 175.094 L 147.333 165.603 144.067 165.602 L 140.800 165.600 140.800 184.667 M188.642 184.663 L 181.685 203.733 185.753 203.733 L 189.822 203.733 191.267 199.400 L 192.711 195.067 199.070 194.995 C 202.568 194.956,205.528 195.021,205.647 195.141 C 205.767 195.260,206.512 197.212,207.303 199.479 L 208.741 203.600 212.791 203.674 C 216.758 203.746,216.837 203.736,216.668 203.205 C 216.573 202.906,213.459 194.353,209.747 184.198 L 202.998 165.733 199.299 165.663 L 195.600 165.593 188.642 184.663 M234.667 184.667 L 234.667 203.733 238.264 203.733 L 241.861 203.733 241.931 191.709 L 242.000 179.685 246.638 187.176 L 251.275 194.667 253.438 194.657 L 255.600 194.647 260.113 187.311 C 262.595 183.276,264.725 179.913,264.846 179.838 C 264.968 179.763,265.067 185.109,265.067 191.718 L 265.067 203.733 268.533 203.733 L 272.000 203.733 272.000 184.667 L 272.000 165.600 268.729 165.600 L 265.459 165.600 259.470 175.200 C 256.177 180.480,253.418 184.796,253.341 184.790 C 253.263 184.785,250.560 180.470,247.333 175.201 L 241.467 165.623 238.067 165.611 L 234.667 165.600 234.667 184.667 M278.133 184.667 L 278.133 203.733 289.600 203.733 L 301.067 203.733 301.067 200.267 L 301.067 196.800 293.200 196.800 L 285.333 196.800 285.333 181.200 L 285.333 165.600 281.733 165.600 L 278.133 165.600 278.133 184.667 M122.261 173.462 C 130.727 177.541,130.675 191.975,122.180 195.957 C 119.928 197.013,115.005 197.013,112.753 195.957 C 103.497 191.618,104.300 176.041,113.943 172.906 C 115.966 172.248,120.351 172.541,122.261 173.462 M201.318 182.141 C 202.352 185.144,203.198 187.750,203.199 187.933 C 203.200 188.185,202.223 188.267,199.200 188.267 C 197.000 188.267,195.200 188.224,195.200 188.172 C 195.200 188.098,198.496 178.462,199.080 176.828 C 199.285 176.255,199.318 176.335,201.318 182.141 " stroke="none" fill="#fbfbfc" fill-rule="evenodd"></path><path id="path1" d="M188.400 52.678 C 120.625 57.432,63.604 110.727,53.888 178.400 C 52.779 186.128,52.667 188.135,52.668 200.267 C 52.669 213.344,53.129 218.905,54.955 227.933 L 55.238 229.333 200.001 229.333 C 337.639 229.333,344.771 229.310,344.906 228.867 C 345.251 227.731,346.136 222.147,346.650 217.867 C 355.886 140.830,304.831 70.335,228.751 55.076 C 216.152 52.549,202.124 51.715,188.400 52.678 M122.267 165.727 C 139.986 170.243,140.749 197.664,123.314 203.350 C 109.388 207.892,96.541 195.830,99.192 180.702 C 101.119 169.712,111.491 162.980,122.267 165.727 M153.012 174.488 C 156.127 179.523,158.832 183.858,159.024 184.120 C 159.335 184.546,159.995 183.597,165.062 175.432 C 168.191 170.391,170.931 166.057,171.150 165.800 C 171.490 165.402,172.036 165.333,174.841 165.333 L 178.133 165.333 178.133 184.533 L 178.133 203.733 174.403 203.733 L 170.672 203.733 170.603 192.020 L 170.533 180.307 166.019 187.620 L 161.504 194.933 159.346 194.933 L 157.188 194.933 152.661 187.626 L 148.133 180.318 148.064 192.026 L 147.994 203.733 144.264 203.733 L 140.533 203.733 140.533 184.533 L 140.533 165.333 143.941 165.333 L 147.348 165.333 153.012 174.488 M209.122 182.000 C 212.452 191.093,215.599 199.703,216.115 201.133 L 217.052 203.733 212.830 203.733 L 208.607 203.733 207.148 199.533 L 205.689 195.333 199.265 195.262 L 192.841 195.191 191.427 199.462 L 190.012 203.733 185.778 203.733 C 182.506 203.733,181.569 203.658,181.658 203.400 C 181.722 203.217,184.873 194.573,188.662 184.193 L 195.550 165.319 199.308 165.393 L 203.067 165.467 209.122 182.000 M241.815 166.067 C 242.100 166.470,244.699 170.640,247.591 175.333 C 250.483 180.027,252.992 184.016,253.166 184.199 C 253.414 184.458,254.784 182.440,259.461 174.924 L 265.440 165.318 268.787 165.392 L 272.133 165.467 272.202 184.600 L 272.270 203.733 268.535 203.733 L 264.800 203.733 264.784 191.933 C 264.774 183.956,264.682 180.263,264.501 180.533 C 264.354 180.753,262.291 184.053,259.917 187.867 L 255.600 194.800 253.429 194.877 L 251.257 194.954 246.762 187.687 L 242.267 180.421 242.197 192.077 L 242.128 203.733 238.397 203.733 L 234.667 203.733 234.667 184.533 L 234.667 165.333 237.982 165.333 C 241.295 165.333,241.297 165.334,241.815 166.067 M285.535 181.133 L 285.604 196.800 293.335 196.800 L 301.067 196.800 301.067 200.267 L 301.067 203.733 289.600 203.733 L 278.133 203.733 278.133 184.526 L 278.133 165.318 281.800 165.392 L 285.467 165.467 285.535 181.133 M114.547 172.961 C 108.629 174.393,105.305 180.789,106.804 187.862 C 109.237 199.349,124.595 199.960,127.868 188.700 C 130.649 179.136,123.575 170.778,114.547 172.961 M197.382 182.293 C 196.332 185.338,195.516 187.871,195.567 187.922 C 195.618 187.973,197.336 187.982,199.385 187.941 L 203.110 187.867 201.200 182.311 L 199.290 176.756 197.382 182.293 M56.819 236.200 C 56.830 236.457,57.224 237.987,57.695 239.600 L 58.551 242.533 200.020 242.600 L 341.489 242.667 341.802 241.534 C 341.973 240.910,342.407 239.350,342.765 238.067 L 343.416 235.733 200.108 235.733 C 63.795 235.733,56.801 235.756,56.819 236.200 M60.810 249.133 C 60.815 249.317,61.341 250.847,61.977 252.533 L 63.135 255.600 199.981 255.667 L 336.827 255.734 337.247 254.734 C 337.478 254.183,338.070 252.623,338.562 251.267 L 339.457 248.800 200.129 248.800 C 88.838 248.800,60.802 248.867,60.810 249.133 M66.133 262.133 C 66.133 262.280,66.863 263.900,67.754 265.733 L 69.375 269.067 200.018 269.067 L 330.662 269.067 331.966 266.467 C 332.684 265.037,333.459 263.417,333.688 262.867 L 334.106 261.867 200.120 261.867 C 111.052 261.867,66.133 261.956,66.133 262.133 M73.073 275.400 C 73.076 275.510,73.687 276.560,74.431 277.733 C 75.175 278.907,76.101 280.377,76.490 281.000 L 77.196 282.133 200.020 282.133 L 322.844 282.133 323.664 280.867 C 325.331 278.291,326.933 275.618,326.933 275.412 C 326.933 275.296,269.813 275.200,200.000 275.200 C 130.187 275.200,73.069 275.290,73.073 275.400 M81.867 288.484 C 81.867 288.603,83.082 290.223,84.567 292.084 L 87.267 295.467 200.032 295.467 L 312.797 295.467 315.465 292.122 C 316.933 290.283,318.133 288.663,318.133 288.522 C 318.133 288.360,275.104 288.267,200.000 288.267 C 135.027 288.267,81.867 288.364,81.867 288.484 M94.428 303.125 C 95.219 303.963,96.780 305.523,97.896 306.591 L 99.926 308.533 200.103 308.533 L 300.279 308.533 303.606 305.296 C 305.436 303.515,306.933 301.955,306.933 301.829 C 306.933 301.702,259.358 301.600,199.961 301.600 L 92.989 301.600 94.428 303.125 M107.467 314.870 C 107.467 315.102,109.158 316.447,113.469 319.641 L 116.472 321.867 200.036 321.863 L 283.600 321.860 287.007 319.346 C 291.508 316.027,292.533 315.204,292.533 314.911 C 292.533 314.763,255.852 314.667,200.000 314.667 C 149.107 314.667,107.467 314.758,107.467 314.870 M127.147 328.420 C 127.477 328.651,130.435 330.211,133.721 331.887 L 139.695 334.933 200.064 334.933 L 260.433 334.933 265.616 332.318 C 270.738 329.734,273.333 328.318,273.333 328.108 C 273.333 328.049,240.307 328.000,199.941 328.000 C 133.083 328.000,126.601 328.037,127.147 328.420 M157.480 341.297 C 158.509 342.234,174.540 345.659,181.867 346.508 C 194.107 347.925,207.177 347.927,218.400 346.513 C 225.738 345.588,241.676 342.164,242.506 341.334 C 242.685 341.155,228.596 341.067,200.000 341.067 C 175.928 341.067,157.337 341.167,157.480 341.297 " stroke="none" fill="#5474fc" fill-rule="evenodd"></path><path id="path2" d="M140.660 184.667 C 140.660 195.227,140.693 199.508,140.733 194.180 C 140.774 188.853,140.774 180.213,140.733 174.980 C 140.693 169.748,140.660 174.107,140.660 184.667 M272.126 184.667 C 272.126 195.227,272.160 199.508,272.200 194.180 C 272.240 188.853,272.240 180.213,272.200 174.980 C 272.159 169.748,272.126 174.107,272.126 184.667 M264.923 191.733 C 264.923 198.407,264.957 201.137,265.000 197.800 C 265.042 194.463,265.042 189.003,265.000 185.667 C 264.957 182.330,264.923 185.060,264.923 191.733 M135.801 183.600 C 135.804 184.187,135.858 184.395,135.922 184.064 C 135.986 183.732,135.983 183.252,135.917 182.997 C 135.850 182.742,135.798 183.013,135.801 183.600 M135.801 185.733 C 135.804 186.320,135.858 186.529,135.922 186.197 C 135.986 185.865,135.983 185.385,135.917 185.130 C 135.850 184.875,135.798 185.147,135.801 185.733 M192.707 195.133 C 192.639 195.243,194.522 195.302,196.892 195.265 C 204.943 195.136,205.749 195.043,199.282 194.988 C 195.734 194.958,192.776 195.023,192.707 195.133 M104.400 198.933 C 104.973 199.520,105.502 200.000,105.575 200.000 C 105.648 200.000,105.240 199.520,104.667 198.933 C 104.094 198.347,103.565 197.867,103.492 197.867 C 103.418 197.867,103.827 198.347,104.400 198.933 M117.003 204.189 C 117.335 204.252,117.815 204.250,118.070 204.183 C 118.325 204.116,118.053 204.064,117.467 204.067 C 116.880 204.070,116.671 204.125,117.003 204.189 " stroke="none" fill="#acbcfc" fill-rule="evenodd"></path><path id="path3" d="M147.856 191.867 C 147.856 198.467,147.891 201.128,147.933 197.782 C 147.975 194.435,147.975 189.035,147.933 185.782 C 147.891 182.528,147.856 185.267,147.856 191.867 M170.789 191.867 C 170.789 198.467,170.824 201.128,170.866 197.782 C 170.909 194.435,170.909 189.035,170.866 185.782 C 170.824 182.528,170.789 185.267,170.789 191.867 " stroke="none" fill="#98a9fc" fill-rule="evenodd"></path><path id="path4" d="M142.200 165.531 C 143.190 165.582,144.810 165.582,145.800 165.531 C 146.790 165.480,145.980 165.438,144.000 165.438 C 142.020 165.438,141.210 165.480,142.200 165.531 M173.144 165.531 C 174.141 165.583,175.701 165.582,176.611 165.530 C 177.522 165.479,176.707 165.436,174.800 165.437 C 172.893 165.437,172.148 165.480,173.144 165.531 M197.267 165.531 C 198.330 165.582,200.070 165.582,201.133 165.531 C 202.197 165.481,201.327 165.439,199.200 165.439 C 197.073 165.439,196.203 165.481,197.267 165.531 M236.344 165.531 C 237.341 165.583,238.901 165.582,239.811 165.530 C 240.722 165.479,239.907 165.436,238.000 165.437 C 236.093 165.437,235.348 165.480,236.344 165.531 M265.240 165.533 C 265.172 165.643,266.155 165.701,267.425 165.662 C 271.686 165.530,272.159 165.430,268.749 165.381 C 266.888 165.355,265.309 165.423,265.240 165.533 M281.731 165.529 L 285.329 165.615 285.401 181.141 L 285.473 196.667 285.470 181.067 L 285.467 165.467 281.800 165.455 L 278.133 165.443 281.731 165.529 M241.867 191.867 C 241.867 198.442,241.924 203.765,241.995 203.694 C 242.173 203.516,242.189 180.233,242.011 180.055 C 241.932 179.976,241.867 185.291,241.867 191.867 M197.412 188.198 C 198.556 188.249,200.356 188.248,201.412 188.198 C 202.469 188.147,201.533 188.106,199.333 188.107 C 197.133 188.107,196.269 188.148,197.412 188.198 M159.333 194.667 L 156.933 194.833 159.251 194.883 C 160.566 194.912,161.640 194.818,161.733 194.667 C 161.824 194.520,161.861 194.423,161.816 194.450 C 161.770 194.478,160.653 194.575,159.333 194.667 M251.171 194.745 C 251.288 194.862,252.333 194.921,253.492 194.876 L 255.600 194.796 253.279 194.664 C 252.002 194.592,251.053 194.629,251.171 194.745 M52.375 199.867 C 52.375 202.213,52.416 203.138,52.465 201.921 C 52.515 200.704,52.515 198.784,52.465 197.654 C 52.415 196.524,52.374 197.520,52.375 199.867 " stroke="none" fill="#738bfc" fill-rule="evenodd"></path></g></svg>